<svg width="66" height="52" viewBox="0 0 66 52" fill="none" xmlns="http://www.w3.org/2000/svg">
<path d="M2 25H63V46C63 49.3137 60.3137 52 57 52H8C4.68629 52 2 49.3137 2 46V25Z" fill="white"/>
<path d="M10.3642 42.9903L11.6245 42.7317C11.9046 43.7937 12.7896 44.3246 14.2796 44.3246C14.8286 44.3246 15.2935 44.2025 15.6745 43.9582C16.0553 43.7139 16.2458 43.3696 16.2458 42.9254C16.2458 42.2646 15.7609 41.8454 14.7915 41.6676L13.0025 41.3306C12.3022 41.1972 11.7449 40.9359 11.3305 40.5467C10.9158 40.1576 10.7087 39.6433 10.7087 39.0038C10.7087 38.2978 10.9915 37.707 11.5573 37.2316C12.123 36.7562 12.8849 36.5186 13.8427 36.5186C15.6856 36.5186 16.8227 37.233 17.2541 38.6619L16.0442 38.9204C15.6968 38.042 14.9825 37.6027 13.9016 37.6027C13.3638 37.6027 12.9227 37.7125 12.5782 37.9318C12.2337 38.1512 12.0614 38.4579 12.0614 38.8523C12.0614 39.4742 12.5013 39.8657 13.3812 40.0267L15.0359 40.3215C16.7667 40.6335 17.6322 41.466 17.6322 42.8192C17.6322 43.5933 17.31 44.2184 16.6659 44.6946C16.0217 45.1707 15.1646 45.4088 14.0948 45.4088C12.0838 45.4088 10.8402 44.6027 10.3642 42.9903Z" fill="#020A6A"/>
<path d="M23.3372 44.2845V45.3186C22.8723 45.3797 22.4689 45.4104 22.1273 45.4104C20.486 45.4104 19.6655 44.5588 19.6655 42.8556V37.7794H18.1614V36.7536H19.6655L19.7243 34.6353L20.951 34.5186V36.7536H22.8499V37.7794H20.951V43.0735C20.951 43.9421 21.4048 44.3762 22.3122 44.3762C22.6147 44.3762 22.9563 44.3458 23.3372 44.2845Z" fill="#020A6A"/>
<path d="M30.0927 42.665L31.3194 42.9152C31.0954 43.6349 30.6584 44.2304 30.0087 44.7018C29.3588 45.1732 28.5942 45.4088 27.7149 45.4088C26.5553 45.4088 25.6171 45.0041 24.9001 44.1943C24.183 43.3846 23.8246 42.3231 23.8246 41.0096C23.8246 39.6684 24.1971 38.5846 24.9421 37.7582C25.687 36.9318 26.6226 36.5186 27.7485 36.5186C28.8576 36.5186 29.7495 36.8995 30.4246 37.6611C31.0995 38.4229 31.4455 39.5626 31.4623 41.0805H25.295C25.295 42.3537 25.5639 43.2127 26.1017 43.6574C26.6394 44.1023 27.2078 44.3246 27.8073 44.3246C28.8883 44.3246 29.6502 43.7715 30.0927 42.665ZM30.0171 40.1047C30.0058 39.6322 29.9274 39.2123 29.7818 38.8454C29.6361 38.4784 29.3897 38.1657 29.0424 37.9071C28.6951 37.6486 28.2778 37.5193 27.7905 37.5193C27.1351 37.5193 26.5791 37.7528 26.1226 38.2199C25.666 38.6869 25.4097 39.3153 25.3538 40.1047H30.0171Z" fill="#020A6A"/>
<path d="M34.7644 45.1758H33.4453V33.792H34.7644V45.1758Z" fill="#020A6A"/>
<path d="M38.7219 45.1758H37.4028V33.792H38.7219V45.1758Z" fill="#020A6A"/>
<path d="M47.998 45.1753H46.6957C46.6453 44.9084 46.5948 44.4026 46.5444 43.6574C45.9618 44.825 44.9703 45.4088 43.57 45.4088C42.6177 45.4088 41.8867 45.1582 41.377 44.6571C40.8672 44.1559 40.6124 43.5545 40.6124 42.8529C40.6124 42.0009 40.9765 41.3008 41.7047 40.7523C42.4328 40.2038 43.6709 39.9295 45.4185 39.9295C45.6538 39.9295 46.029 39.9408 46.5444 39.9629C46.5444 39.2957 46.4926 38.8134 46.389 38.5159C46.2853 38.2186 46.0655 37.9809 45.7294 37.8029C45.3933 37.625 44.9508 37.536 44.4018 37.536C43.063 37.536 42.2845 38.042 42.066 39.0539L40.8477 38.8454C41.1445 37.2941 42.3937 36.5186 44.5951 36.5186C45.7658 36.5186 46.5961 36.7758 47.0864 37.29C47.5765 37.8043 47.8216 38.6952 47.8216 39.9629V43.5407C47.8216 44.1357 47.8804 44.6805 47.998 45.1753ZM46.5444 40.9637C46.0067 40.9303 45.5977 40.9137 45.3177 40.9137C44.2758 40.9137 43.4663 41.0837 42.8894 41.4236C42.3124 41.7635 42.024 42.2595 42.024 42.9116C42.024 43.3241 42.1795 43.6752 42.4903 43.965C42.8012 44.2548 43.2507 44.3997 43.8389 44.3997C44.6342 44.3997 45.2883 44.1128 45.8008 43.5386C46.3134 42.9646 46.5697 42.2902 46.5697 41.5154C46.5697 41.3594 46.5612 41.1756 46.5444 40.9637Z" fill="#020A6A"/>
<path d="M51.7789 45.1754H50.4598V36.7521H51.6192V38.7203C52.0281 37.7919 52.4385 37.19 52.8502 36.9148C53.2619 36.6396 53.6833 36.502 54.1147 36.502C54.2492 36.502 54.4227 36.5132 54.6357 36.5353V37.7863H54.3668C53.6386 37.7863 53.0336 38.056 52.5519 38.5952C52.0701 39.1346 51.8125 39.8435 51.7789 40.7219V45.1754Z" fill="#020A6A"/>
<path d="M64.756 25.1655C64.4652 24.317 63.9387 23.5981 63.2334 23.0865C63.1817 23.049 63.1291 23.0133 63.0761 22.9784C62.2088 20.3355 61.0333 17.8157 59.5659 15.459C57.6335 12.3556 55.247 9.61626 52.4725 7.31706C49.6694 4.99414 46.5478 3.18527 43.1942 1.94068C39.7243 0.652936 36.0836 0 32.3731 0C28.7869 0 25.2616 0.610885 21.895 1.81567C18.64 2.98059 15.5923 4.67808 12.8366 6.86098C10.1132 9.01838 7.73894 11.5986 5.77987 14.5299C4.34227 16.681 3.15322 18.9847 2.22826 21.4067C2.04669 21.5046 1.87092 21.6169 1.70251 21.744C0.984986 22.2855 0.463461 23.0396 0.194288 23.9248C-0.491942 26.1813 0.69784 28.6036 2.84651 29.3243C4.00811 29.7139 5.73558 30.0959 7.58602 30.3723C9.84539 30.7098 12.2428 30.8882 14.5191 30.8882C15.1391 30.8882 15.759 30.8751 16.362 30.8493C19.7465 30.7048 22.8599 30.1625 25.6155 29.2375C27.072 28.7486 28.4372 28.1481 29.6966 27.4434C30.0229 28.0451 30.359 28.5838 30.7089 29.0671C31.5177 30.1839 32.4341 31.0233 33.4327 31.562C34.3018 32.0308 35.2187 32.2684 36.158 32.2684C36.3337 32.2684 36.5107 32.2598 36.6848 32.243C37.6095 32.1536 38.4958 31.8377 39.3196 31.3041C40.0722 30.8166 40.7744 30.1432 41.4068 29.3025C42.1754 28.2807 42.8845 26.9505 43.5157 25.3467C44.7376 26.7327 46.0232 27.9028 47.3613 28.8448C49.5313 30.3726 51.8592 31.3199 54.2803 31.6604C54.9538 31.7552 55.6441 31.8032 56.3319 31.8032C58.2857 31.8032 60.2912 31.4195 62.2927 30.6628C63.3208 30.2741 64.1432 29.4883 64.6085 28.4499C65.0737 27.4116 65.1261 26.2452 64.756 25.1655Z" fill="white"/>
<path d="M51.7776 25.9019L60.1994 26.6881C57.0541 13.6255 45.7885 3.95898 32.3731 3.95898C19.4093 3.95898 8.45294 12.9857 4.89185 25.3808L31.7413 23.4374L36.3894 27.5132L42.4364 19.1247L51.7776 25.9019Z" fill="#020A6A"/>
<path d="M60.9069 24.2048C60.6917 24.2048 60.4727 24.2433 60.2585 24.3242C58.8993 24.8381 57.5949 25.0956 56.3345 25.0956C54.3638 25.0956 52.5008 24.4659 50.7052 23.2017C48.0879 21.3591 45.6773 18.2107 43.5404 13.844L40.796 8.23633L39.9423 14.4773C39.5701 17.198 38.9131 19.9673 38.1398 22.0749C37.1468 24.7808 36.3502 25.416 36.1528 25.5379C35.9066 25.3957 34.7721 24.5136 33.2544 19.8046L32.2733 16.7607L30.0957 19.0183C26.331 22.9215 20.4165 23.9596 16.1178 24.1432C15.5782 24.1662 15.0433 24.1769 14.5151 24.1769C10.1268 24.1769 6.24329 23.4385 4.67354 22.9119C4.4799 22.847 4.28366 22.8161 4.09069 22.8161C3.27997 22.8161 2.52702 23.3611 2.26718 24.2156C1.94547 25.2735 2.50124 26.4049 3.50854 26.7428C5.37426 27.3686 9.6633 28.1984 14.5196 28.1983C15.097 28.1983 15.6831 28.1866 16.2734 28.1614C19.4629 28.0252 22.3831 27.5188 24.9529 26.6562C27.082 25.9415 28.9712 24.9806 30.5982 23.7874C31.191 25.2411 31.8006 26.3949 32.441 27.2793C33.7843 29.1344 35.1543 29.5786 36.158 29.5786C36.2721 29.5786 36.3816 29.5728 36.4857 29.5628C37.6649 29.4487 38.7461 28.7484 39.6992 27.4813C40.3679 26.5923 40.9966 25.3899 41.5675 23.9076C41.9872 22.8181 42.3769 21.5712 42.7185 20.2402C44.5117 22.9518 46.4708 25.0622 48.5729 26.5421C50.4637 27.8733 52.4811 28.6972 54.5691 28.9908C55.1504 29.0726 55.7381 29.1134 56.3318 29.1134C58.0356 29.1134 59.786 28.7771 61.5555 28.1081C62.5504 27.7319 63.0666 26.58 62.7085 25.5351C62.4274 24.7152 61.6915 24.2048 60.9069 24.2048Z" fill="#8D3979"/>
<path d="M12.939 19.8581C13.2053 19.1705 13.5273 18.5218 13.9051 17.912C14.2828 17.3022 14.7055 16.7103 15.1732 16.1364L14.05 16.0066C13.8705 15.9664 13.6995 15.9788 13.5369 16.0438C13.3744 16.1088 13.2306 16.2052 13.1056 16.3329L11.0591 18.441C10.9132 18.59 10.8598 18.7591 10.8987 18.9483C10.9377 19.1375 11.047 19.2574 11.2266 19.3081L12.939 19.8581ZM21.4355 13.7766C20.4344 13.735 19.4887 13.9376 18.5983 14.3845C17.7079 14.8314 16.9138 15.4168 16.216 16.1407C15.7162 16.6624 15.2561 17.2125 14.8359 17.7912C14.4157 18.3698 14.0776 18.9976 13.8217 19.6746C13.7809 19.7909 13.7611 19.9043 13.7623 20.0149C13.7635 20.1255 13.8067 20.2224 13.8919 20.3058L15.601 21.9933C15.6862 22.0767 15.7867 22.123 15.9027 22.1322C16.0187 22.1415 16.1343 22.1191 16.2496 22.0652C16.9206 21.784 17.546 21.4242 18.1257 20.986C18.7055 20.5478 19.2453 20.0679 19.7452 19.5463C20.4325 18.833 20.9899 18.0316 21.4172 17.1421C21.8445 16.2527 22.0317 15.3132 21.9787 14.3236C21.9779 14.2499 21.9613 14.1816 21.9291 14.1188C21.8968 14.056 21.854 13.9985 21.8008 13.9464C21.7475 13.8943 21.6918 13.8528 21.6335 13.8219C21.5752 13.7909 21.5092 13.7758 21.4355 13.7766ZM17.4106 18.4501C17.187 18.2314 17.0735 17.9641 17.07 17.6481C17.0665 17.3322 17.1741 17.0624 17.3929 16.8388C17.6116 16.6152 17.879 16.5017 18.1949 16.4982C18.5109 16.4947 18.7806 16.6023 19.0042 16.8211C19.2278 17.0398 19.3414 17.3072 19.3448 17.6231C19.3483 17.9391 19.2407 18.2088 19.022 18.4324C18.8032 18.656 18.5359 18.7696 18.2199 18.773C17.904 18.7765 17.6342 18.6689 17.4106 18.4501ZM16.1013 22.9516L16.689 24.6673C16.7436 24.8458 16.8632 24.9524 17.048 24.9873C17.2327 25.0221 17.3927 24.9703 17.5281 24.8319L19.8405 22.4681C20.0071 22.2978 20.1077 22.1018 20.1421 21.8802C20.1765 21.6587 20.1452 21.4431 20.0481 21.2335L19.773 20.6361C19.2093 21.1058 18.6269 21.5388 18.0256 21.9351C17.4243 22.3314 16.7829 22.6703 16.1013 22.9516ZM11.5563 21.9904C11.9001 21.6496 12.3116 21.4739 12.7907 21.4633C13.2699 21.4528 13.6798 21.6142 14.0205 21.9475C14.3612 22.2808 14.5237 22.6846 14.5078 23.1587C14.492 23.6329 14.3174 24.0403 13.9841 24.381C13.5154 24.8602 12.9553 25.1718 12.3038 25.3159C11.6523 25.46 10.9954 25.5831 10.3329 25.6851C10.4099 25.0207 10.5158 24.3586 10.6508 23.6988C10.7857 23.039 11.0875 22.4695 11.5563 21.9904Z" fill="#FCFBFD"/>
<path fill-rule="evenodd" clip-rule="evenodd" d="M39 11.4997C39 11.4997 36.8616 11.5085 34.3409 11.4262C31.8203 11.3439 31.1001 10.6751 30.7125 10.2875C30.3249 9.8999 29.7248 9.17971 29.6425 6.65907C29.5602 4.13843 29.5003 2 29.5003 2C29.5003 2 29.4365 4.13843 29.3542 6.65907C29.2719 9.17971 28.6751 9.8999 28.2875 10.2875C27.8999 10.6751 27.1797 11.3439 24.6591 11.4262C22.1384 11.5085 20 11.4997 20 11.4997C20 11.4997 22.1384 11.4915 24.6591 11.5738C27.1797 11.6561 27.8999 12.3249 28.2875 12.7125C28.6751 13.1001 29.3439 13.8203 29.4262 16.3409C29.5085 18.8616 29.4997 21 29.4997 21C29.4997 21 29.4915 18.8616 29.5738 16.3409C29.6561 13.8203 30.3249 13.1001 30.7125 12.7125C31.1001 12.3249 31.8203 11.6561 34.3409 11.5738C36.8616 11.4915 39 11.4997 39 11.4997Z" fill="#FCFCFC"/>
<path fill-rule="evenodd" clip-rule="evenodd" d="M36 6.99997C36 6.99997 35.7749 7.00089 35.5096 6.99223C35.2442 6.98357 35.1684 6.91317 35.1276 6.87237C35.0868 6.83157 35.0237 6.75576 35.015 6.49043C35.0063 6.2251 35 6 35 6C35 6 34.9933 6.2251 34.9847 6.49043C34.976 6.75576 34.9132 6.83157 34.8724 6.87237C34.8316 6.91317 34.7558 6.98357 34.4904 6.99223C34.2251 7.00089 34 6.99997 34 6.99997C34 6.99997 34.2251 6.99911 34.4904 7.00777C34.7558 7.01643 34.8316 7.08683 34.8724 7.12763C34.9132 7.16843 34.9836 7.24424 34.9922 7.50957C35.0009 7.7749 35 8 35 8C35 8 34.9991 7.7749 35.0078 7.50957C35.0164 7.24424 35.0868 7.16843 35.1276 7.12763C35.1684 7.08683 35.2442 7.01643 35.5096 7.00777C35.7749 6.99911 36 6.99997 36 6.99997Z" fill="#FCFCFC"/>
<path fill-rule="evenodd" clip-rule="evenodd" d="M36 8.49993C36 8.49993 35.4373 8.50223 34.7739 8.48057C34.1106 8.45891 33.9211 8.28293 33.8191 8.18092C33.7171 8.07892 33.5592 7.8894 33.5375 7.22607C33.5158 6.56275 33.5001 6 33.5001 6C33.5001 6 33.4833 6.56275 33.4616 7.22607C33.44 7.8894 33.2829 8.07892 33.1809 8.18092C33.0789 8.28293 32.8894 8.45891 32.2261 8.48057C31.5627 8.50223 31 8.49993 31 8.49993C31 8.49993 31.5627 8.49777 32.2261 8.51943C32.8894 8.54109 33.0789 8.71707 33.1809 8.81908C33.2829 8.92108 33.4589 9.1106 33.4806 9.77393C33.5022 10.4373 33.4999 11 33.4999 11C33.4999 11 33.4978 10.4373 33.5194 9.77393C33.5411 9.1106 33.7171 8.92108 33.8191 8.81908C33.9211 8.71707 34.1106 8.54109 34.7739 8.51943C35.4373 8.49777 36 8.49993 36 8.49993Z" fill="#FCFCFC"/>
<path fill-rule="evenodd" clip-rule="evenodd" d="M55 16.9999C55 16.9999 53.8745 17.0045 52.5479 16.9611C51.2212 16.9178 50.8422 16.5659 50.6382 16.3618C50.4341 16.1578 50.1183 15.7788 50.075 14.4521C50.0317 13.1255 50.0001 12 50.0001 12C50.0001 12 49.9666 13.1255 49.9233 14.4521C49.88 15.7788 49.5659 16.1578 49.3618 16.3618C49.1578 16.5659 48.7788 16.9178 47.4521 16.9611C46.1255 17.0045 45 16.9999 45 16.9999C45 16.9999 46.1255 16.9955 47.4521 17.0389C48.7788 17.0822 49.1578 17.4341 49.3618 17.6382C49.5659 17.8422 49.9178 18.2212 49.9611 19.5479C50.0045 20.8745 49.9999 22 49.9999 22C49.9999 22 49.9955 20.8745 50.0389 19.5479C50.0822 18.2212 50.4341 17.8422 50.6382 17.6382C50.8422 17.4341 51.2212 17.0822 52.5479 17.0389C53.8745 16.9955 55 16.9999 55 16.9999Z" fill="#FCFCFC"/>
</svg>
