<svg xmlns="http://www.w3.org/2000/svg" viewBox="0 0 1661 1087"><path fill="#fff" d="M1654.8 745.3a103.9 103.9 0 0 0-43-53.2 831.6 831.6 0 0 0-508-511.7A828 828 0 0 0 827.3 133 828.5 828.5 0 0 0 56.9 653.8a103.7 103.7 0 0 0-52 61.3 104.6 104.6 0 0 0 67.8 131.3A800.9 800.9 0 0 0 194 872a1280.9 1280.9 0 0 0 224 11.5c86.5-3.5 166-16.7 236.5-39.2a628.9 628.9 0 0 0 104.3-43.6 364.9 364.9 0 0 0 25.8 39.5 209.2 209.2 0 0 0 69.6 60.6 151.3 151.3 0 0 0 83.1 16.6c23.7-2.2 46.3-9.8 67.4-22.8a207.9 207.9 0 0 0 53.3-48.7 406 406 0 0 0 53.9-96.2c31.2 33.7 64 62.1 98.3 85a415.1 415.1 0 0 0 176.8 68.5c17.2 2.3 34.8 3.5 52.4 3.5 50 0 101.2-9.3 152.3-27.7a103.8 103.8 0 0 0 59.3-54 103.8 103.8 0 0 0 3.8-79.8Z"/><path fill="#020a6a" d="m1323.1 763.2 215.2 19A733.7 733.7 0 0 0 125 750.6l686.1-47.3L930 802.4l154.5-204 238.7 164.8Z"/><path fill="#8d3979" d="M1556.4 721.8c-5.5 0-11 1-16.6 2.9a295.3 295.3 0 0 1-100.2 18.8c-50.4 0-98-15.4-143.9-46.1-66.9-44.8-128.5-121.4-183-227.6l-70.2-136.4-21.8 151.8a892.6 892.6 0 0 1-46 184.8c-25.5 65.8-45.8 81.3-50.9 84.2-6.2-3.4-35.2-24.9-74-139.4l-25-74-55.7 54.8c-96.2 95-247.4 120.2-357.2 124.7-13.8.6-27.5.8-41 .8-112.1 0-211.4-18-251.5-30.8a49 49 0 1 0-29.7 93.2C137.3 798.8 246.9 819 371 819a969 969 0 0 0 44.9-.9 844 844 0 0 0 221.7-36.6A535.3 535.3 0 0 0 782 711.6a402.5 402.5 0 0 0 47.1 85c34.3 45.1 69.3 56 95 56 2.9 0 5.7-.2 8.4-.5 30-2.7 57.7-19.8 82-50.6a353.8 353.8 0 0 0 47.8-87 787.1 787.1 0 0 0 29.4-89.1c45.8 66 96 117.3 149.6 153.3a360 360 0 0 0 153.3 59.5c14.8 2 29.8 3 45 3 43.5 0 88.3-8.2 133.5-24.5a49 49 0 0 0-16.6-94.9Z"/><path fill="#e8695a" fill-rule="evenodd" d="M1092.7 543.5s-122.3.5-266.6-4.2c-144.2-4.7-185.5-43-207.6-65.2-22.2-22.1-60.5-63.3-65.2-207.6C548.6 122.3 549.1 0 549.1 0s.5 122.3-4.3 266.5c-4.7 144.3-43 185.5-65.1 207.6-22.2 22.2-63.4 60.5-207.7 65.2-144.2 4.7-266.6 4.2-266.6 4.2s122.4-.5 266.6 4.2c144.3 4.7 185.5 43 207.7 65.2 22.2 22.1 60.4 63.3 65.1 207.6 4.8 144.2 4.3 266.5 4.3 266.5s-.5-122.3 4.2-266.5c4.7-144.3 43-185.5 65.2-207.6 22.1-22.2 63.4-60.5 207.6-65.2s266.6-4.2 266.6-4.2Z"/></svg>