<svg width="32" height="16" viewBox="0 0 32 16" fill="none" xmlns="http://www.w3.org/2000/svg">
<path d="M31.8799 12.3892C31.7367 11.9715 31.4775 11.6175 31.1303 11.3657C31.1048 11.3472 31.0789 11.3296 31.0528 11.3125C30.6259 10.0113 30.0472 8.77081 29.3247 7.61057C28.3734 6.08276 27.1985 4.73416 25.8326 3.60224C24.4527 2.45865 22.9158 1.56814 21.2648 0.955412C19.5566 0.321445 17.7642 0 15.9375 0C14.172 0 12.4365 0.300743 10.7791 0.89387C9.17661 1.46737 7.67621 2.30305 6.31958 3.37771C4.9788 4.43982 3.80994 5.71007 2.84548 7.15318C2.13773 8.21218 1.55236 9.34633 1.09699 10.5387C1.0076 10.5869 0.921066 10.6422 0.838159 10.7047C0.484916 10.9713 0.228165 11.3426 0.0956496 11.7784C-0.242187 12.8893 0.343552 14.0818 1.40136 14.4366C1.97322 14.6284 2.82367 14.8164 3.73466 14.9525C4.84696 15.1187 6.02722 15.2065 7.14784 15.2065C7.45312 15.2065 7.75825 15.2 8.05512 15.1874C9.72135 15.1162 11.2541 14.8492 12.6107 14.3938C13.3277 14.1532 13.9999 13.8575 14.6199 13.5106C14.7805 13.8068 14.946 14.072 15.1182 14.3099C15.5164 14.8598 15.9675 15.273 16.4592 15.5382C16.887 15.769 17.3385 15.886 17.8008 15.886C17.8874 15.886 17.9745 15.8818 18.0602 15.8735C18.5154 15.8295 18.9518 15.6739 19.3574 15.4112C19.7279 15.1712 20.0736 14.8397 20.3849 14.4258C20.7633 13.9228 21.1124 13.268 21.4231 12.4784C22.0247 13.1607 22.6576 13.7368 23.3163 14.2005C24.3846 14.9527 25.5307 15.419 26.7226 15.5867C27.0542 15.6333 27.394 15.657 27.7326 15.657C28.6945 15.657 29.6818 15.4681 30.6672 15.0955C31.1733 14.9042 31.5782 14.5173 31.8073 14.0061C32.0363 13.495 32.0621 12.9207 31.8799 12.3892Z" fill="white"/>
<path d="M25.4905 12.7519L29.6366 13.1389C28.0882 6.70811 22.542 1.94922 15.9375 1.94922C9.55531 1.94922 4.16142 6.39314 2.40826 12.4954L15.6265 11.5386L17.9148 13.5452L20.8917 9.41542L25.4905 12.7519Z" fill="#020A6A"/>
<path d="M29.985 11.9161C29.879 11.9161 29.7712 11.935 29.6657 11.9749C28.9966 12.2279 28.3544 12.3546 27.7339 12.3546C26.7637 12.3546 25.8465 12.0446 24.9626 11.4223C23.6741 10.5151 22.4873 8.96516 21.4353 6.81541L20.0842 4.05469L19.6639 7.12715C19.4807 8.4666 19.1572 9.82991 18.7765 10.8675C18.2877 12.1997 17.8955 12.5124 17.7983 12.5724C17.6771 12.5024 17.1186 12.0681 16.3714 9.74984L15.8884 8.25128L14.8164 9.36275C12.963 11.2843 10.0512 11.7954 7.93495 11.8858C7.66928 11.8971 7.40593 11.9024 7.14593 11.9024C4.98552 11.9024 3.07364 11.5388 2.30084 11.2796C2.2055 11.2476 2.10889 11.2324 2.01389 11.2324C1.61477 11.2324 1.24409 11.5007 1.11616 11.9214C0.957786 12.4422 1.2314 12.9992 1.72729 13.1656C2.6458 13.4737 4.75733 13.8822 7.14814 13.8821C7.4324 13.8821 7.72094 13.8764 8.01154 13.864C9.58176 13.7969 11.0194 13.5476 12.2845 13.1229C13.3327 12.7711 14.2628 12.298 15.0637 11.7106C15.3556 12.4263 15.6557 12.9943 15.971 13.4297C16.6323 14.343 17.3067 14.5617 17.8009 14.5617C17.857 14.5616 17.911 14.5588 17.9622 14.5539C18.5427 14.4977 19.075 14.1529 19.5442 13.5291C19.8735 13.0915 20.1829 12.4995 20.464 11.7698C20.6707 11.2334 20.8625 10.6195 21.0307 9.96429C21.9135 11.2992 22.878 12.3382 23.9128 13.0668C24.8437 13.7221 25.8369 14.1277 26.8648 14.2723C27.151 14.3126 27.4403 14.3326 27.7326 14.3326C28.5714 14.3326 29.4331 14.1671 30.3043 13.8377C30.7941 13.6525 31.0482 13.0854 30.8719 12.571C30.7335 12.1673 30.3712 11.9161 29.985 11.9161Z" fill="#8D3979"/>
<path d="M6.36994 9.7762C6.50105 9.4377 6.65958 9.11835 6.84555 8.81814C7.03152 8.51793 7.23963 8.22655 7.46987 7.944L6.91691 7.88007C6.82854 7.8603 6.74435 7.86641 6.66432 7.89841C6.5843 7.9304 6.51352 7.97785 6.45198 8.04075L5.44444 9.07855C5.37265 9.15194 5.34634 9.2352 5.36552 9.32832C5.38469 9.42145 5.43849 9.4805 5.52692 9.50545L6.36994 9.7762ZM10.5528 6.78227C10.06 6.76176 9.5944 6.86151 9.15605 7.08153C8.7177 7.30154 8.32677 7.58975 7.98326 7.94614C7.73718 8.20293 7.5107 8.47377 7.30382 8.75865C7.09693 9.04354 6.93051 9.35261 6.80453 9.68586C6.78442 9.74312 6.77466 9.79898 6.77526 9.85342C6.77586 9.90786 6.79713 9.95559 6.83906 9.99661L7.68047 10.8274C7.7224 10.8684 7.77191 10.8912 7.829 10.8958C7.88609 10.9003 7.94301 10.8893 7.99976 10.8628C8.33011 10.7243 8.638 10.5472 8.92342 10.3315C9.20885 10.1158 9.4746 9.87949 9.72068 9.6227C10.0591 9.27155 10.3334 8.87703 10.5438 8.43913C10.7542 8.00124 10.8464 7.53872 10.8203 7.05157C10.8199 7.01527 10.8117 6.98166 10.7958 6.95072C10.7799 6.91978 10.7589 6.89149 10.7327 6.86585C10.7065 6.84021 10.679 6.81977 10.6503 6.80453C10.6216 6.78929 10.5891 6.78187 10.5528 6.78227ZM8.57135 9.08307C8.46127 8.97539 8.40537 8.84377 8.40366 8.68823C8.40195 8.53268 8.45494 8.39987 8.56263 8.28979C8.67031 8.17971 8.80193 8.12381 8.95747 8.1221C9.11302 8.1204 9.24583 8.17338 9.35591 8.28107C9.46599 8.38875 9.52189 8.52037 9.5236 8.67592C9.52531 8.83146 9.47232 8.96427 9.36463 9.07435C9.25695 9.18443 9.12533 9.24033 8.96979 9.24204C8.81424 9.24375 8.68143 9.19076 8.57135 9.08307ZM7.92678 11.2992L8.21608 12.1438C8.24297 12.2317 8.30189 12.2842 8.39282 12.3013C8.48376 12.3185 8.56255 12.293 8.62922 12.2248L9.76761 11.0612C9.84965 10.9773 9.89915 10.8808 9.9161 10.7717C9.93305 10.6626 9.91762 10.5565 9.86982 10.4533L9.73436 10.1592C9.45688 10.3905 9.17013 10.6036 8.87411 10.7987C8.57809 10.9939 8.26231 11.1607 7.92678 11.2992ZM5.68922 10.826C5.8585 10.6582 6.06108 10.5717 6.29696 10.5665C6.53284 10.5613 6.73465 10.6408 6.90239 10.8049C7.07013 10.9689 7.1501 11.1677 7.1423 11.4011C7.13449 11.6346 7.04854 11.8352 6.88445 12.0029C6.65369 12.2388 6.37796 12.3922 6.05724 12.4631C5.73651 12.5341 5.41309 12.5947 5.08695 12.6449C5.12484 12.3178 5.177 11.9919 5.24344 11.667C5.30987 11.3422 5.45846 11.0619 5.68922 10.826Z" fill="#FCFBFD"/>
<path fill-rule="evenodd" clip-rule="evenodd" d="M19 5.49987C19 5.49987 17.9871 5.50402 16.7931 5.46503C15.5991 5.42604 15.2579 5.10927 15.0743 4.92566C14.8907 4.74206 14.6065 4.40092 14.5675 3.20693C14.5285 2.01294 14.5001 1 14.5001 1C14.5001 1 14.4699 2.01294 14.4309 3.20693C14.392 4.40092 14.1093 4.74206 13.9257 4.92566C13.7421 5.10927 13.4009 5.42604 12.2069 5.46503C11.0129 5.50402 10 5.49987 10 5.49987C10 5.49987 11.0129 5.49598 12.2069 5.53497C13.4009 5.57396 13.7421 5.89073 13.9257 6.07434C14.1093 6.25794 14.426 6.59908 14.465 7.79307C14.504 8.98706 14.4999 10 14.4999 10C14.4999 10 14.496 8.98706 14.535 7.79307C14.574 6.59908 14.8907 6.25794 15.0743 6.07434C15.2579 5.89073 15.5991 5.57396 16.7931 5.53497C17.9871 5.49598 19 5.49987 19 5.49987Z" fill="#FCFCFC"/>
<path fill-rule="evenodd" clip-rule="evenodd" d="M18 3.49999C18 3.49999 17.8875 3.50045 17.7548 3.49611C17.6221 3.49178 17.5842 3.45659 17.5638 3.43618C17.5434 3.41578 17.5118 3.37788 17.5075 3.24521C17.5032 3.11255 17.5 3 17.5 3C17.5 3 17.4967 3.11255 17.4923 3.24521C17.488 3.37788 17.4566 3.41578 17.4362 3.43618C17.4158 3.45659 17.3779 3.49178 17.2452 3.49611C17.1125 3.50045 17 3.49999 17 3.49999C17 3.49999 17.1125 3.49955 17.2452 3.50389C17.3779 3.50822 17.4158 3.54341 17.4362 3.56382C17.4566 3.58422 17.4918 3.62212 17.4961 3.75479C17.5004 3.88745 17.5 4 17.5 4C17.5 4 17.4996 3.88745 17.5039 3.75479C17.5082 3.62212 17.5434 3.58422 17.5638 3.56382C17.5842 3.54341 17.6221 3.50822 17.7548 3.50389C17.8875 3.49955 18 3.49999 18 3.49999Z" fill="#FCFCFC"/>
<path fill-rule="evenodd" clip-rule="evenodd" d="M18 3.99997C18 3.99997 17.6624 4.00089 17.2644 3.99223C16.8664 3.98357 16.7526 3.91317 16.6914 3.87237C16.6302 3.83157 16.5355 3.75576 16.5225 3.49043C16.5095 3.2251 16.5 3 16.5 3C16.5 3 16.49 3.2251 16.477 3.49043C16.464 3.75576 16.3698 3.83157 16.3086 3.87237C16.2474 3.91317 16.1336 3.98357 15.7356 3.99223C15.3376 4.00089 15 3.99997 15 3.99997C15 3.99997 15.3376 3.99911 15.7356 4.00777C16.1336 4.01643 16.2474 4.08683 16.3086 4.12763C16.3698 4.16843 16.4753 4.24424 16.4883 4.50957C16.5013 4.7749 16.5 5 16.5 5C16.5 5 16.4987 4.7749 16.5117 4.50957C16.5247 4.24424 16.6302 4.16843 16.6914 4.12763C16.7526 4.08683 16.8664 4.01643 17.2644 4.00777C17.6624 3.99911 18 3.99997 18 3.99997Z" fill="#FCFCFC"/>
<path fill-rule="evenodd" clip-rule="evenodd" d="M27 8.49993C27 8.49993 26.4373 8.50223 25.7739 8.48057C25.1106 8.45891 24.9211 8.28293 24.8191 8.18092C24.7171 8.07892 24.5592 7.8894 24.5375 7.22607C24.5158 6.56275 24.5001 6 24.5001 6C24.5001 6 24.4833 6.56275 24.4616 7.22607C24.44 7.8894 24.2829 8.07892 24.1809 8.18092C24.0789 8.28293 23.8894 8.45891 23.2261 8.48057C22.5627 8.50223 22 8.49993 22 8.49993C22 8.49993 22.5627 8.49777 23.2261 8.51943C23.8894 8.54109 24.0789 8.71707 24.1809 8.81908C24.2829 8.92108 24.4589 9.1106 24.4806 9.77393C24.5022 10.4373 24.4999 11 24.4999 11C24.4999 11 24.4978 10.4373 24.5194 9.77393C24.5411 9.1106 24.7171 8.92108 24.8191 8.81908C24.9211 8.71707 25.1106 8.54109 25.7739 8.51943C26.4373 8.49777 27 8.49993 27 8.49993Z" fill="#FCFCFC"/>
</svg>
