<svg width="116" height="26" viewBox="0 0 116 26" fill="none" xmlns="http://www.w3.org/2000/svg">
<g clip-path="url(#clip0_2641_19745)">
<path fill-rule="evenodd" clip-rule="evenodd" d="M3.12408 22.4131C7.17896 9.42937 19.3738 -0.000976562 33.7878 -0.000976562C48.6859 -0.000976562 61.2133 10.0735 64.8323 23.7332L55.0489 23.995L44.4506 12.4235L40.6167 23.2152L37.7888 24.8465L35.7707 23.1115L32.6915 18.1842L21.6913 22.8103L3.12408 22.4131Z" fill="#020A6A"/>
<path d="M37.9472 26.0004C36.807 26.0004 35.7197 25.3348 34.711 24.0183C33.8686 22.9188 33.0408 21.3048 32.243 19.2091C30.2806 20.8159 27.8767 22.0765 25.0763 22.9649C22.3001 23.8456 19.1359 24.3631 15.6716 24.5029C9.60738 24.7478 4.04801 23.772 1.79079 23.0565C1.26682 22.8904 0.977721 22.3341 1.14508 21.8141C1.31242 21.294 1.87282 21.007 2.39679 21.1732C4.43818 21.8203 9.82539 22.7603 15.5906 22.5275C20.6001 22.3253 27.5101 21.1647 31.981 16.7838L33.1138 15.6739L33.6241 17.1704C34.5062 19.757 35.4053 21.6583 36.2965 22.8215C36.7396 23.3999 37.4 24.0774 38.0349 24.0193C38.9549 23.9352 40.1 22.4232 41.0979 19.9748C42.0577 17.6199 42.8684 14.4714 43.3222 11.3367L43.7662 8.26855L45.1937 11.0254C47.6734 15.8141 50.4975 19.2847 53.5875 21.3408C57.1533 23.7134 61.0929 24.1549 65.2973 22.6526C65.8148 22.4678 66.3854 22.7342 66.5717 23.2479C66.758 23.7616 66.4895 24.3279 65.9719 24.5128C61.1391 26.2397 56.5992 25.725 52.4784 22.983C49.6783 21.1198 47.1031 18.2409 44.8014 14.4054C44.3188 16.7213 43.6729 18.9288 42.9444 20.7163C41.5848 24.0519 39.9945 25.8256 38.2177 25.988C38.1272 25.9963 38.037 26.0004 37.9472 26.0004Z" fill="#8D3979"/>
<path fill-rule="evenodd" clip-rule="evenodd" d="M55.7106 14.3199C55.7106 13.8196 56.1191 13.4141 56.6232 13.4141C57.1274 13.4141 57.5359 13.8196 57.5359 14.3199C57.5359 14.8202 57.1274 15.2258 56.6232 15.2258C56.1191 15.2258 55.7106 14.8202 55.7106 14.3199Z" fill="#E8695A"/>
<path fill-rule="evenodd" clip-rule="evenodd" d="M30.9123 11.8811C30.9123 11.8811 28.5813 11.8905 25.8335 11.8015C23.0858 11.7124 22.3008 10.9889 21.8782 10.5695C21.4557 10.1501 20.7267 9.37085 20.637 6.64357C20.5473 3.91628 20.5568 1.60254 20.5568 1.60254H20.5562C20.5562 1.60254 20.5658 3.91628 20.4761 6.64357C20.3863 9.37085 19.6574 10.1501 19.2348 10.5695C18.8123 10.9889 18.0272 11.7124 15.2795 11.8015C12.5318 11.8905 10.2007 11.8811 10.2007 11.8811L10.2007 11.8816C10.2007 11.8816 12.5318 11.8722 15.2795 11.9612C18.0272 12.0503 18.8123 12.7739 19.2348 13.1932C19.6574 13.6126 20.3863 14.3919 20.4761 17.1191C20.5658 19.8464 20.5562 22.1602 20.5562 22.1602H20.5568C20.5568 22.1602 20.5473 19.8464 20.637 17.1191C20.7267 14.3919 21.4557 13.6126 21.8782 13.1932C22.3008 12.7739 23.0858 12.0503 25.8335 11.9612C28.5813 11.8722 30.9123 11.8816 30.9123 11.8816L30.9123 11.8811Z" fill="#E8695A"/>
</g>
<path d="M71.3642 23.5811L72.6245 23.3225C72.9046 24.3846 73.7896 24.9154 75.2796 24.9154C75.8286 24.9154 76.2935 24.7933 76.6745 24.549C77.0553 24.3047 77.2458 23.9604 77.2458 23.5162C77.2458 22.8554 76.7609 22.4362 75.7915 22.2584L74.0025 21.9214C73.3022 21.788 72.7449 21.5267 72.3305 21.1375C71.9158 20.7484 71.7087 20.2341 71.7087 19.5946C71.7087 18.8886 71.9915 18.2978 72.5573 17.8224C73.123 17.3471 73.8849 17.1094 74.8427 17.1094C76.6856 17.1094 77.8227 17.8239 78.2541 19.2527L77.0442 19.5112C76.6968 18.6329 75.9825 18.1936 74.9016 18.1936C74.3638 18.1936 73.9227 18.3033 73.5782 18.5226C73.2337 18.742 73.0614 19.0488 73.0614 19.4431C73.0614 20.0651 73.5013 20.4565 74.3812 20.6176L76.0359 20.9123C77.7667 21.2243 78.6322 22.0569 78.6322 23.41C78.6322 24.1841 78.31 24.8092 77.6659 25.2854C77.0217 25.7616 76.1646 25.9996 75.0948 25.9996C73.0838 25.9996 71.8402 25.1935 71.3642 23.5811Z" fill="#E8695A"/>
<path d="M84.3373 24.8743V25.9085C83.8723 25.9696 83.469 26.0002 83.1274 26.0002C81.4861 26.0002 80.6656 25.1486 80.6656 23.4455V18.3693H79.1615V17.3435H80.6656L80.7244 15.2252L81.9511 15.1084V17.3435H83.85V18.3693H81.9511V23.6634C81.9511 24.5319 82.4048 24.9661 83.3123 24.9661C83.6148 24.9661 83.9564 24.9356 84.3373 24.8743Z" fill="#E8695A"/>
<path d="M91.0928 23.2558L92.3196 23.506C92.0955 24.2257 91.6586 24.8212 91.0088 25.2926C90.3589 25.764 89.5944 25.9996 88.715 25.9996C87.5555 25.9996 86.6172 25.5949 85.9002 24.7851C85.1831 23.9754 84.8247 22.9139 84.8247 21.6004C84.8247 20.2592 85.1972 19.1755 85.9422 18.349C86.6872 17.5226 87.6227 17.1094 88.7486 17.1094C89.8577 17.1094 90.7497 17.4903 91.4247 18.2519C92.0996 19.0137 92.4456 20.1534 92.4624 21.6713H86.2952C86.2952 22.9445 86.564 23.8035 87.1018 24.2483C87.6395 24.6931 88.208 24.9154 88.8074 24.9154C89.8884 24.9154 90.6503 24.3623 91.0928 23.2558ZM91.0172 20.6955C91.0059 20.223 90.9275 19.8032 90.7819 19.4362C90.6362 19.0693 90.3898 18.7565 90.0425 18.498C89.6952 18.2394 89.2779 18.1102 88.7906 18.1102C88.1352 18.1102 87.5792 18.3437 87.1227 18.8107C86.6661 19.2777 86.4099 19.9061 86.354 20.6955H91.0172Z" fill="#E8695A"/>
<path d="M95.7644 25.7657H94.4453V14.3818H95.7644V25.7657Z" fill="#E8695A"/>
<path d="M99.7219 25.7657H98.4028V14.3818H99.7219V25.7657Z" fill="#E8695A"/>
<path d="M108.998 25.7661H107.696C107.645 25.4992 107.595 24.9934 107.544 24.2483C106.962 25.4158 105.97 25.9996 104.57 25.9996C103.618 25.9996 102.887 25.7491 102.377 25.2479C101.867 24.7467 101.612 24.1453 101.612 23.4437C101.612 22.5918 101.976 21.8916 102.705 21.3431C103.433 20.7947 104.671 20.5203 106.419 20.5203C106.654 20.5203 107.029 20.5316 107.544 20.5537C107.544 19.8865 107.493 19.4043 107.389 19.1068C107.285 18.8094 107.066 18.5717 106.729 18.3937C106.393 18.2158 105.951 18.1268 105.402 18.1268C104.063 18.1268 103.284 18.6329 103.066 19.6447L101.848 19.4362C102.145 17.885 103.394 17.1094 105.595 17.1094C106.766 17.1094 107.596 17.3666 108.086 17.8808C108.576 18.3951 108.822 19.286 108.822 20.5537V24.1315C108.822 24.7265 108.88 25.2713 108.998 25.7661ZM107.544 21.5545C107.007 21.5211 106.598 21.5045 106.318 21.5045C105.276 21.5045 104.466 21.6745 103.889 22.0144C103.312 22.3544 103.024 22.8503 103.024 23.5024C103.024 23.915 103.179 24.266 103.49 24.5558C103.801 24.8456 104.251 24.9905 104.839 24.9905C105.634 24.9905 106.288 24.7036 106.801 24.1294C107.313 23.5554 107.57 22.8811 107.57 22.1062C107.57 21.9502 107.561 21.7664 107.544 21.5545Z" fill="#E8695A"/>
<path d="M112.779 25.7652H111.46V17.342H112.619V19.3102C113.028 18.3817 113.439 17.7798 113.85 17.5046C114.262 17.2294 114.683 17.0918 115.115 17.0918C115.249 17.0918 115.423 17.103 115.636 17.1252V18.3761H115.367C114.639 18.3761 114.034 18.6459 113.552 19.1851C113.07 19.7244 112.813 20.4334 112.779 21.3117V25.7652Z" fill="#E8695A"/>
<path d="M71.3642 15.7832L72.6245 15.5247C72.9046 16.5867 73.7896 17.1176 75.2796 17.1176C75.8286 17.1176 76.2935 16.9955 76.6745 16.7512C77.0553 16.5068 77.2458 16.1626 77.2458 15.7183C77.2458 15.0576 76.7609 14.6383 75.7915 14.4606L74.0025 14.1236C73.3022 13.9901 72.7449 13.7289 72.3305 13.3397C71.9158 12.9505 71.7087 12.4362 71.7087 11.7968C71.7087 11.0908 71.9915 10.5 72.5573 10.0246C73.123 9.54922 73.8849 9.31152 74.8427 9.31152C76.6856 9.31152 77.8227 10.026 78.2541 11.4548L77.0442 11.7134C76.6968 10.835 75.9825 10.3957 74.9016 10.3957C74.3638 10.3957 73.9227 10.5054 73.5782 10.7247C73.2337 10.9442 73.0614 11.2509 73.0614 11.6452C73.0614 12.2672 73.5013 12.6587 74.3812 12.8197L76.0359 13.1145C77.7667 13.4264 78.6322 14.259 78.6322 15.6121C78.6322 16.3863 78.31 17.0114 77.6659 17.4875C77.0217 17.9637 76.1646 18.2018 75.0948 18.2018C73.0838 18.2018 71.8402 17.3957 71.3642 15.7832Z" fill="#020A6A"/>
<path d="M84.3372 17.0775V18.1116C83.8722 18.1727 83.4689 18.2033 83.1273 18.2033C81.486 18.2033 80.6654 17.3518 80.6654 15.6486V10.5724H79.1614V9.5466H80.6654L80.7243 7.42828L81.951 7.31152V9.5466H83.8499V10.5724H81.951V15.8665C81.951 16.735 82.4047 17.1692 83.3122 17.1692C83.6147 17.1692 83.9562 17.1387 84.3372 17.0775Z" fill="#020A6A"/>
<path d="M91.0927 15.458L92.3194 15.7082C92.0954 16.4279 91.6584 17.0234 91.0087 17.4947C90.3588 17.9662 89.5942 18.2018 88.7149 18.2018C87.5553 18.2018 86.6171 17.797 85.9001 16.9873C85.183 16.1775 84.8246 15.116 84.8246 13.8025C84.8246 12.4614 85.1971 11.3776 85.9421 10.5512C86.687 9.72473 87.6226 9.31152 88.7485 9.31152C89.8576 9.31152 90.7495 9.69242 91.4246 10.4541C92.0995 11.2159 92.4455 12.3555 92.4623 13.8734H86.295C86.295 15.1467 86.5639 16.0057 87.1017 16.4504C87.6394 16.8953 88.2078 17.1176 88.8073 17.1176C89.8883 17.1176 90.6502 16.5644 91.0927 15.458ZM91.0171 12.8976C91.0058 12.4252 90.9274 12.0053 90.7818 11.6384C90.6361 11.2714 90.3897 10.9586 90.0424 10.7001C89.6951 10.4416 89.2778 10.3123 88.7905 10.3123C88.1351 10.3123 87.5791 10.5458 87.1226 11.0128C86.666 11.4799 86.4097 12.1082 86.3538 12.8976H91.0171Z" fill="#020A6A"/>
<path d="M95.7644 17.9688H94.4453V6.58496H95.7644V17.9688Z" fill="#020A6A"/>
<path d="M99.7219 17.9688H98.4028V6.58496H99.7219V17.9688Z" fill="#020A6A"/>
<path d="M108.998 17.9683H107.696C107.645 17.7014 107.595 17.1955 107.544 16.4504C106.962 17.618 105.97 18.2018 104.57 18.2018C103.618 18.2018 102.887 17.9512 102.377 17.45C101.867 16.9489 101.612 16.3475 101.612 15.6459C101.612 14.7939 101.976 14.0938 102.705 13.5453C103.433 12.9968 104.671 12.7225 106.419 12.7225C106.654 12.7225 107.029 12.7337 107.544 12.7558C107.544 12.0887 107.493 11.6064 107.389 11.3089C107.285 11.0116 107.066 10.7739 106.729 10.5959C106.393 10.418 105.951 10.329 105.402 10.329C104.063 10.329 103.284 10.835 103.066 11.8468L101.848 11.6384C102.145 10.0871 103.394 9.31152 105.595 9.31152C106.766 9.31152 107.596 9.56875 108.086 10.083C108.576 10.5973 108.822 11.4882 108.822 12.7558V16.3337C108.822 16.9287 108.88 17.4735 108.998 17.9683ZM107.544 13.7566C107.007 13.7233 106.598 13.7066 106.318 13.7066C105.276 13.7066 104.466 13.8767 103.889 14.2165C103.312 14.5565 103.024 15.0524 103.024 15.7045C103.024 16.1171 103.179 16.4681 103.49 16.758C103.801 17.0478 104.251 17.1926 104.839 17.1926C105.634 17.1926 106.288 16.9057 106.801 16.3316C107.313 15.7576 107.57 15.0832 107.57 14.3084C107.57 14.1524 107.561 13.9685 107.544 13.7566Z" fill="#020A6A"/>
<path d="M112.779 17.9683H111.46V9.54512H112.619V11.5133C113.028 10.5848 113.439 9.98297 113.85 9.70773C114.262 9.43254 114.683 9.29492 115.115 9.29492C115.249 9.29492 115.423 9.30614 115.636 9.32828V10.5793H115.367C114.639 10.5793 114.034 10.849 113.552 11.3882C113.07 11.9276 112.813 12.6365 112.779 13.5149V17.9683Z" fill="#020A6A"/>
<defs>
<clipPath id="clip0_2641_19745">
<rect width="67" height="26" fill="white" transform="translate(0.364197)"/>
</clipPath>
</defs>
</svg>
