
<svg
	xmlns="http://www.w3.org/2000/svg" viewBox="0 0 16 16">
	<g id="span">
		<path fill="currentColor" d="M0.799805 0.227539L1.33887 0.666016C5.35724 3.93065 11.1297 3.8036 15 0.40918V0H15.7998V16H15V1.44824C10.8537 4.66756 4.97642 4.65267 0.833984 1.28711L0.799805 1.25879V16H0V0H0.799805V0.227539Z" />
	</g>
	<g id="support">
		<path fill="currentColor" d="M7.90039 0.0380859C7.9646 0.0137009 8.0354 0.013701 8.09961 0.0380859L10.5566 0.964844C10.6992 1.01869 10.7704 1.17843 10.7148 1.32031C10.7144 1.32134 10.7133 1.32223 10.7129 1.32324V4.11719H14.6172V4.66406H10.7129V7.53125H13.2256V8.07812H10.7979L12.8115 15.4541H16V16H0V15.4541H3.18945L5.20215 8.07812H2.79102V7.53125H5.28711V4.66406H1.39941V4.11719H5.28711V1.31738H5.28809C5.2346 1.17626 5.30576 1.01839 5.44727 0.964844L7.90039 0.0380859ZM5.7793 8.07812L3.76562 15.4541H12.2344L10.2207 8.07812H5.7793ZM5.84375 7.53125H10.1572V4.66406H5.84375V7.53125ZM8.35352 0.717773C8.12585 0.631877 7.87411 0.632737 7.64648 0.71875L5.84375 1.39941V4.11719H10.1572V1.39844L8.35352 0.717773Z"/>
	</g>
</svg>