<svg xmlns="http://www.w3.org/2000/svg" version="1.1" viewBox="0 0 512 512">
  <path d="M510.0782921,318.1901899c-2.2909014-6.3616604-6.4382897-11.7517863-11.9940162-15.5880104-.4072847-.28125-.8214178-.549142-1.238862-.810374-6.8312005-19.8164305-16.0905315-38.709829-27.649644-56.3806395-15.2209123-23.2689908-34.0197142-43.8085078-55.8738665-61.0478482-22.0794684-17.4171748-46.6687574-30.9799841-73.0844686-40.3119087-27.3318949-9.6554778-56.0096657-14.5511681-85.2367855-14.5511681-28.2483796,0-56.0172854,4.5803964-82.5351,13.6138704-25.6398045,8.7345389-49.6462556,21.4622104-71.3523232,37.8295799-21.4525024,16.1761444-40.1541912,35.5223763-55.5856177,57.5013592-11.3239003,16.1287803-20.6899323,33.4022022-27.9758029,51.5618184-1.4301671.7340457-2.8147492,1.5761588-4.1412667,2.5291991-5.65188,4.0603737-9.7598924,9.7146101-11.8801458,16.3514812-5.4053859,16.9195501,3.9664379,35.0813863,20.8913652,40.4855663,9.1498031,2.9213009,22.7569781,5.7853321,37.3327172,7.8577846,17.7969017,2.5304784,36.6810814,3.8679821,54.6110073,3.8679821,4.8843784,0,9.7665837-.0980208,14.5164422-.2911838,26.6597095-1.0837973,51.1835072-5.1500033,72.8895748-12.0855837,11.4724178-3.6656755,22.2261044-8.1681397,32.1466334-13.4518728,2.5700818,4.5113633,5.2175831,8.5507782,7.9737539,12.174047,6.370296,8.3743408,13.5886879,14.6681204,21.4549764,18.7067828,6.8458566,3.5148439,14.0683688,5.296978,21.466547,5.296978,1.3845009-.0004892,2.7785029-.0644566,4.149646-.1903973,7.2838457-.670605,14.2652005-3.0393021,20.7546829-7.0404871,5.9279608-3.6549327,11.4592668-8.7043378,16.4406406-15.007863,6.0541837-7.6612351,11.6393729-17.6346125,16.6116407-29.6598598,9.6243595,10.3919693,19.7509391,19.1650533,30.2909367,26.2286816,17.0932406,11.4553535,35.4298586,18.5581712,54.5008985,21.1112452,5.3053126.7103965,10.7425488,1.0706087,16.1601055,1.0706087,15.389937,0,31.187234-2.8769376,46.9528107-8.5508723,8.0980201-2.9142269,14.5763835-8.806761,18.2412312-16.5920554,3.6647348-7.7852191,4.0775885-16.5311546,1.1623268-24.6268605h-.0000376Z" fill="#fff"/>
  <path d="M407.8486197,323.7090599l66.3374042,5.8949988c-24.7750205-97.9430796-113.5133108-170.4222277-219.1853934-170.4222277-102.1150295,0-188.4172969,67.6820759-216.4677913,160.6204713l211.4913468-14.5715295,36.6125233,30.5601833,47.6316938-62.8970071,73.5802166,50.8151109Z" fill="#020a6a"/>
  <path d="M479.7597741,310.9598323c-1.6953641,0-3.4204919.2882111-5.1074273.8954883-10.7064636,3.8526863-20.9810338,5.7835636-30.9090507,5.7835636-15.5234785,0-30.1982967-4.7216281-44.3420719-14.2002547-20.6157042-13.8160923-39.6036993-37.4223516-56.4362912-70.1635534l-21.617134-42.0465328-6.7247323,46.7943594c-2.9314793,20.4002655-8.1068438,41.1638286-14.1985426,56.9667886-7.8210785,20.288962-14.0963075,25.0516046-15.6509808,25.9657752-1.9390802-1.0662063-10.8760903-7.6804065-22.8306536-42.9882377l-7.7277424-22.8234666-17.1528056,16.9278847c-29.6541027,29.2656508-76.2422235,37.0494212-110.1028374,38.4261143-4.2505923.172731-8.4641963.2528221-12.6243028.2528221-34.5664292,0-65.1566679-5.5368937-77.5214697-9.4850045-1.5253352-.4868678-3.0710695-.7183548-4.5910992-.7183548-6.3859821,0-12.3168638,4.0865063-14.3636575,10.4934895-2.5340284,7.9319868,1.8437181,16.4156368,9.7780896,18.9490878,14.6961673,4.6921843,48.4806317,10.9139252,86.7336293,10.9133608,4.5481634,0,9.1646403-.0878988,13.8142862-.2770356,25.1235022-1.0213538,48.1258802-4.8184824,68.3679391-11.2862724,16.7704306-5.3584809,31.6519201-12.5628752,44.4670719-21.5097062,4.6696075,10.8996642,9.4718535,19.5506456,14.5160659,26.1817784,10.5812002,13.9100116,21.3721009,17.2406668,29.2784443,17.2403846.8985362-.0002822,1.761213-.0433097,2.5808434-.1185844,9.2888313-.8552453,17.8049729-6.106242,25.3125731-15.6067492,5.2678164-6.666108,10.2193512-15.6817228,14.7168674-26.795885,3.306103-8.1689487,6.3749995-17.5182669,9.0661492-27.49774,14.1252998,20.3314252,29.556891,36.1547607,46.1147614,47.25152,14.8938127,9.9813922,30.7848409,16.1586945,47.2312197,18.3604365,4.579244.6131283,9.2083451.9189494,13.8850455.9189494,13.4202277,0,27.2080802-2.521523,41.1467079-7.5379283,7.8369951-2.8203264,11.9028813-11.4575359,9.0816895-19.2920852-2.2139146-6.1477644-8.0103846-9.9743745-14.1906219-9.9743745l.0000376-.0000376Z" fill="#8d3979"/>
  <path d="M336.8355311,255.9952448s-37.7229988.1543498-82.188321-1.2971289-57.1696972-13.2447498-64.007445-20.0803904c-6.8377478-6.8356312-18.6346688-19.5360836-20.086599-63.9876527s-1.297524-82.1628939-1.297524-82.1628939h-.0095011s.1544062,37.7113224-1.297524,82.1628939c-1.4519302,44.4515691-13.2488512,57.1520121-20.086599,63.9876527-6.8377478,6.8356312-19.5421323,18.6289118-64.0074544,20.0803904-44.4653269,1.4514787-82.188321,1.2971289-82.188321,1.2971289l.0000307.0095011s37.7229963-.1543498,82.1883185,1.2971289,57.1697066,13.2447498,64.0074544,20.0803904,18.6346782,19.5360836,20.0866084,63.9876527c1.4519302,44.4515691,1.297524,82.1629033,1.297524,82.1629033h.0095011s-.1544062-37.7113153,1.297524-82.1628845,13.2488512-57.1520121,20.086599-63.9876527c6.8377478-6.8356406,19.5421228-18.6289118,64.007445-20.0803904,44.4653222-1.4514787,82.188321-1.2971289,82.188321-1.2971289l-.0000376-.0095011v-.0000188Z" fill="#e8695a" fill-rule="evenodd"/>
</svg>