<svg xmlns="http://www.w3.org/2000/svg" version="1.1" xmlns:xlink="http://www.w3.org/1999/xlink" xmlns:svgjs="http://svgjs.dev/svgjs" width="1661" height="1087"><svg xmlns="http://www.w3.org/2000/svg" version="1.1" viewBox="0 0 1661 1087" width="1661" height="1087">
  <path d="M1654.7658642,745.2537967c-7.4319949-20.6381503-20.8867277-38.1244481-38.9103336-50.5697209-1.3212543-.9124134-2.6648124-1.7815055-4.0190374-2.6289672-22.1614351-64.2873073-52.1999702-125.580173-89.6993496-182.9067457-49.3787892-75.4878953-110.3647369-142.1209757-181.2627588-198.0478157-71.6289543-56.5037708-151.3999868-100.5034366-237.0962995-130.7775182-88.6685288-31.3237297-181.7032577-47.2060485-276.5201041-47.2060485-91.6417147,0-181.7279857,14.8594512-267.7554605,44.1653168-83.1791414,28.3360741-161.0594469,69.6264314-231.4769685,122.7244808-69.59495,52.4776762-130.2658573,115.2395887-180.3275774,186.5425244-36.7363248,52.3240219-67.1210528,108.3614373-90.757444,167.2738122-4.6396633,2.381339-9.1314432,5.113308-13.4348533,8.2050559-18.3354947,13.1724043-31.6624658,31.5155553-38.5408673,53.046488-17.5358328,54.889431,12.8676837,113.8089555,67.7745282,131.340877,29.683251,9.477127,73.8268427,18.7684268,121.1125953,25.4917727,57.7356621,8.2092365,118.9985884,12.5482745,177.1657794,12.5482745,15.845597,0,31.6841634-.3179723,47.0933828-.9446469,86.4878531-3.5159938,166.0465152-16.7073625,236.4640369-39.2073596,37.2181584-11.8919719,72.1046059-26.4985842,104.2881792-43.6397657,8.3377208,14.6355134,16.9266012,27.7399366,25.8679777,39.4943103,20.6661146,27.16755,44.0835897,47.5854584,69.6029502,60.687458,22.2089517,11.4026531,45.6397606,17.1841393,69.6405272,17.1841393,4.4915374-.0015753,9.0138636-.2090935,13.4620057-.6176467,23.6298456-2.1755174,46.2783265-9.8599298,67.3311201-22.8403269,19.2311596-11.8571331,37.1754903-28.2381013,53.335764-48.6876373,19.6406273-24.8541315,37.7597514-57.2091508,53.8904484-96.2207465,31.2228154,33.7130059,64.0747737,62.1741363,98.2681081,85.0895332,55.4529225,37.1627756,114.9394284,60.2053494,176.8085559,68.4878383,17.2112163,2.304633,34.8503252,3.4732178,52.4256743,3.4732178,49.9271703,0,101.1758374-9.333167,152.3214708-27.7402395,26.2711421-9.4541637,47.2878133-28.5703727,59.1771627-53.826938,11.8888645-25.2563229,13.2283013-53.6294171,3.7707871-79.8929756Z" fill="#fff"></path>
  <path d="M1323.1184237,763.1577968l215.2078429,19.1242068c-80.3737184-317.7411379-368.2532156-552.8736903-711.0682855-552.8736903-331.2755498,0-611.2522491,219.5702054-702.2520039,521.0754256l686.1077307-47.2720908,118.776157,99.1415116,154.5239654-204.0467567,238.7045933,164.8513937Z" fill="#020a6a"></path>
  <path d="M1556.4082986,721.797459c-5.5000544,0-11.0965968.9350132-16.5692565,2.9050724-34.7332305,12.498652-68.0654466,18.7626708-100.2732631,18.7626708-50.3603963,0-97.9674925-15.3176271-143.851867-46.0676372-66.8801966-44.8213771-128.4799821-121.403393-183.0873019-227.6204557l-70.1290276-136.4048654-21.8159695,151.8074991c-9.5101219,66.181327-26.299749,133.541236-46.0620772,184.8082785-25.3726891,65.8202757-45.7304302,81.2709568-50.7739852,84.2366184-6.2906251-3.4589187-35.2835511-24.9162961-74.0658806-139.4598962l-25.0698916-74.0425389-55.6461408,54.9164538c-96.2021028,94.9418894-247.3405055,120.193547-357.1891047,124.6597012-13.7895313.5603899-27.4590588.8201966-40.955005.8201966-112.1383693,0-211.3774175-17.9624687-251.4905774-30.7706711-4.9484005-1.5794404-9.9629849-2.330444-14.8941727-2.330444-20.7170253,0-39.9576398,13.2572293-46.5977306,34.042369-8.2207474,25.7324938,5.9812819,53.254612,31.721498,61.4734823,47.6764318,15.2220778,157.2779928,35.4062935,281.376138,35.4044758,14.7548955,0,29.7313738-.285133,44.8154919-.8987202,81.5041788-3.3134439,156.1271681-15.6318429,221.7952048-36.6142612,54.4056164-17.3836597,102.6832794-40.7557177,144.2574557-69.7805098,15.1488475,35.3600639,30.7280117,63.4250618,47.0921707,84.9373936,34.3269145,45.1260198,69.3340931,55.9311419,94.9833972,55.930233,2.9150022-.0009088,5.713637-.1405065,8.372631-.3846811,30.1342957-2.7745632,57.7618448-19.8095318,82.1175317-50.6304919,17.0895155-21.6258155,33.1530588-50.8736972,47.7435854-86.9296285,10.7254335-26.5011895,20.6813878-56.8317404,29.4118484-89.2065723,45.8244938,65.9579951,95.8866987,117.2911405,149.6028385,153.2906026,48.3176644,32.3810726,99.8703411,52.4210858,153.2247724,59.5638305,14.8557472,1.9890843,29.8731965,2.9811725,45.045075,2.9811725,43.537148,0,88.266819-8.1801537,133.4857177-24.4541214,25.4243271-9.149521,38.6145666-37.1698646,29.4622743-62.5862643-7.18229-19.9442217-25.9867693-32.358291-46.0363794-32.358291Z" fill="#8d3979"></path>
  <path d="M1092.7419499,543.4845968s-122.3787118.5007524-266.6304929-4.2080524c-144.2517812-4.7088048-185.4665758-42.9678437-207.6491999-65.143604-22.1826241-22.1757604-60.4535049-63.3778022-65.1637671-207.5849488-4.7102622-144.2071465-4.2093548-266.5479917-4.2093548-266.5479917h-.0308159s.5009074,122.3408452-4.2093548,266.5479917c-4.7102622,144.2071465-42.981143,185.4091884-65.1637671,207.5849488-22.1826241,22.1757604-63.3974188,60.4347992-207.6491999,65.143604-144.2517812,4.7088048-266.6304929,4.2080523-266.6304929,4.2080523l.0000995.0308063s122.3787118-.5007524,266.6304929,4.2080524c144.2517812,4.7088048,185.4665758,42.9678437,207.6491999,65.143604,22.1826241,22.1757604,60.4535049,63.3778022,65.1637671,207.5849488,4.7102622,144.2071465,4.2093548,266.5479917,4.2093548,266.5479917h.0308159s-.5009074-122.3408452,4.2093548-266.5479917c4.7102622-144.2071465,42.981143-185.4091884,65.1637671-207.5849488,22.1826241-22.1757604,63.3974188-60.4347992,207.6491999-65.143604s266.6304929-4.2080523,266.6304929-4.2080523l-.0000995-.0308063Z" fill="#e8695a" fill-rule="evenodd"></path>
</svg><style>@media (prefers-color-scheme: light) { :root { filter: none; } }
@media (prefers-color-scheme: dark) { :root { filter: none; } }
</style></svg>