<svg width="1610" height="1095" xmlns="http://www.w3.org/2000/svg" xmlns:xlink="http://www.w3.org/1999/xlink" xml:space="preserve" overflow="hidden"><g transform="translate(-5210 -3737)"><path d="M5888.64 4453.11 5878.48 4458.1C5705.96 4531.48 5473.31 4525.12 5350.61 4483.72L5331.07 4475.86 5344.62 4439.91 5888.64 4453.11ZM6206.39 4460.82 6205.45 4463.06C6165.8 4547.87 6113.09 4583.62 6056.21 4477.23L6046.17 4456.93 6206.39 4460.82ZM6740.65 4473.78 6762.24 4520.82 6736.05 4508.81C6645.41 4586.52 6578.17 4539.8 6457.16 4482.03L6440.27 4466.49 6740.65 4473.78ZM6117.81 3971.57C6398.77 4002.44 6625.89 4186.36 6725.77 4431.5L6740.65 4473.78 6440.27 4466.49 6424.77 4452.24C6361.32 4389.03 6306.28 4305.54 6268.88 4228.72 6259.47 4294.99 6242.34 4369.37 6219.69 4429.14L6206.39 4460.82 6046.17 4456.93 6045.5 4455.59C6034.75 4432.24 6023.87 4403.69 6012.92 4369.32 5988.69 4394.37 5960.02 4415.69 5928.26 4433.65L5888.64 4453.11 5344.62 4439.91 5353.84 4415.44C5480.72 4123.6 5785.78 3935.09 6117.81 3971.57Z" fill="#020A6A" fill-rule="evenodd"/><path d="M0 225.363C214.39 330.244 391.013 192.744 518.449 0 525.571 214.097 605.434 519.349 769.179 167.716 948.258 388.082 1360.03 370.862 1457.07 351.221" stroke="#8D3979" stroke-width="98.5417" stroke-linecap="round" stroke-miterlimit="8" fill="none" fill-rule="evenodd" transform="matrix(-0.994018 -0.109216 -0.109216 0.994018 6794.55 4289.38)"/><path d="M5210 4284.5C5735.32 4252.16 5768.9 4277.57 5778.5 3737 5776.1 4300.67 5821.68 4263.71 6347 4284.5 5821.68 4282.19 5752.11 4291.43 5778.5 4832 5756.91 4279.88 5735.32 4247.54 5210 4284.5Z" fill="#E8695A" fill-rule="evenodd"/></g></svg>