<svg width="1568" height="1422" xmlns="http://www.w3.org/2000/svg" xmlns:xlink="http://www.w3.org/1999/xlink" xml:space="preserve" overflow="hidden"><g transform="translate(152 1165)"><path d="M-149.5-567.798C-149.5-624.717-103.325-670.86-46.3651-670.86L667.354-960.5 1296.32-604.209C1368.68-626.192 1413.5-624.717 1413.5-567.798L1413.5-155.562C1413.5-98.6425 1367.32-52.5001 1310.37-52.5001L-46.3651-52.5001C-103.325-52.5001-149.5-98.6425-149.5-155.562L-149.5-567.798Z" stroke="#FFFFFF" stroke-width="4.58333" stroke-miterlimit="8" fill="#FFFFFF" fill-rule="evenodd"/><path d="M491.058-678.553 480.899-673.563C308.381-600.182 75.7255-606.542-46.9752-647.941L-66.5097-655.807-52.9653-691.751 491.058-678.553ZM808.806-670.844 807.866-668.604C768.213-583.792 715.504-548.04 658.632-654.438L648.587-674.731 808.806-670.844ZM1343.06-657.883 1364.65-610.848 1338.47-622.856C1247.83-545.145 1180.59-591.866 1059.58-649.631L1042.68-665.17 1343.06-657.883ZM720.232-1160.09C1001.19-1129.22 1228.31-945.304 1328.19-700.165L1343.06-657.883 1042.68-665.17 1027.19-679.42C963.736-742.63 908.701-826.122 871.3-902.945 861.883-836.672 844.761-762.29 822.105-702.526L808.806-670.844 648.587-674.732 647.921-676.076C637.167-699.425 626.285-727.977 615.335-762.344 591.11-737.294 562.438-715.97 530.68-698.015L491.057-678.553-52.9656-691.752-43.7445-716.223C83.1377-1008.07 388.197-1196.57 720.232-1160.09Z" fill="#020A6A" fill-rule="evenodd"/><path d="M0 225.363C214.39 330.244 391.013 192.744 518.449 0 525.571 214.097 605.434 519.349 769.179 167.716 948.258 388.082 1360.03 370.862 1457.07 351.221" stroke="#8D3979" stroke-width="45.8333" stroke-linecap="round" stroke-miterlimit="8" fill="none" fill-rule="evenodd" transform="matrix(-0.994018 -0.109216 -0.109216 0.994018 1396.97 -842.283)"/><path d="M116-886C321.601-899.941 334.744-888.988 338.5-1122 337.561-879.03 355.399-894.962 561-886 355.399-886.996 328.173-883.012 338.5-650 330.05-887.991 321.601-901.932 116-886Z" fill="#E8695A" fill-rule="evenodd"/><path d="M1144-833C1144-844.598 1153.4-854 1165-854 1176.6-854 1186-844.598 1186-833 1186-821.402 1176.6-812 1165-812 1153.4-812 1144-821.402 1144-833Z" fill="#E8695A" fill-rule="evenodd"/><text fill="#E8695A" font-family="Franklin Gothic Book,Franklin Gothic Book_MSFontService,sans-serif" font-weight="400" font-size="403" transform="matrix(1 0 0 1 116.255 -78)">stellar</text><text fill="#020A6A" font-family="Franklin Gothic Book,Franklin Gothic Book_MSFontService,sans-serif" font-weight="400" font-size="403" transform="matrix(1 0 0 1 116.255 -255)">stellar</text></g></svg>